<svg width="24" height="24" viewBox="0 0 24 24" fill="none" xmlns="http://www.w3.org/2000/svg">
<path fill-rule="evenodd" clip-rule="evenodd" d="M13 18.2251C13 18.5885 13.3773 18.8398 13.7182 18.7139C14.959 18.2558 17.7406 17.3749 21.5373 17.0379C21.7978 17.0148 22 16.804 22 16.5424C22 14.6515 22 7.46305 22 5.49866C22 5.22252 21.7785 5.00215 21.5027 5.01567C20.2481 5.07715 16.8035 5.37986 13.2985 6.87024C13.1166 6.94756 13 7.1259 13 7.3235C13 8.90967 13 15.8779 13 18.2251Z" fill="#F8991C"/>
<path opacity="0.3" fill-rule="evenodd" clip-rule="evenodd" d="M11 18.2251C11 18.5885 10.6227 18.8398 10.2818 18.7139C9.04097 18.2558 6.25942 17.3749 2.46271 17.0379C2.20214 17.0148 1.99999 16.804 1.99999 16.5424C1.99999 14.6515 1.99999 7.46304 1.99999 5.49865C1.99999 5.22251 2.22147 5.00214 2.49728 5.01566C3.75193 5.07714 7.19651 5.37985 10.7015 6.87023C10.8834 6.94755 11 7.12589 11 7.32349C11 8.90966 11 15.8779 11 18.2251Z" fill="#F8991C"/>
</svg>
