<svg width="30" height="11" viewBox="0 0 30 11" fill="none" xmlns="http://www.w3.org/2000/svg">
<path d="M4.22259 10.112C3.11193 10.112 2.21593 9.678 1.53459 8.81C0.862594 7.93267 0.526594 6.72867 0.526594 5.198C0.526594 3.72333 0.857927 2.538 1.52059 1.642C2.18326 0.736667 3.08393 0.284 4.22259 0.284C5.33326 0.284 6.22459 0.718 6.89659 1.586C7.57793 2.454 7.91859 3.658 7.91859 5.198C7.91859 6.67267 7.58726 7.86267 6.92459 8.768C6.27126 9.664 5.37059 10.112 4.22259 10.112ZM4.22259 8.6C4.86659 8.6 5.36593 8.30133 5.72059 7.704C6.08459 7.10667 6.26659 6.27133 6.26659 5.198C6.26659 4.12467 6.08459 3.28933 5.72059 2.692C5.35659 2.08533 4.85726 1.782 4.22259 1.782C3.58793 1.782 3.08859 2.08533 2.72459 2.692C2.36059 3.28933 2.17859 4.12467 2.17859 5.198C2.17859 6.25267 2.36059 7.08333 2.72459 7.69C3.09793 8.29667 3.59726 8.6 4.22259 8.6ZM13.3792 5.016C13.8646 5.23067 14.2426 5.54333 14.5132 5.954C14.7932 6.36467 14.9332 6.84533 14.9332 7.396C14.9332 8.208 14.6299 8.866 14.0232 9.37C13.4259 9.86467 12.6652 10.112 11.7412 10.112C10.9292 10.112 10.2199 9.92533 9.61325 9.552C9.01592 9.16933 8.59592 8.67467 8.35325 8.068L9.75325 7.452C10.0706 8.21733 10.6959 8.6 11.6292 8.6C12.0959 8.6 12.4879 8.46933 12.8052 8.208C13.1226 7.93733 13.2812 7.592 13.2812 7.172C13.2812 6.77067 13.1226 6.43 12.8052 6.15C12.4879 5.87 12.0446 5.73 11.4752 5.73H10.7472V4.358H11.6292C12.1052 4.358 12.4552 4.23667 12.6792 3.994C12.9126 3.75133 13.0292 3.448 13.0292 3.084C13.0292 2.70133 12.8892 2.38867 12.6092 2.146C12.3292 1.90333 11.9886 1.782 11.5872 1.782C10.8872 1.782 10.3599 2.062 10.0052 2.622L8.70325 1.922C8.94592 1.42733 9.32392 1.03067 9.83725 0.731999C10.3506 0.433333 10.9479 0.284 11.6292 0.284C12.4972 0.284 13.2206 0.512666 13.7992 0.969999C14.3779 1.42733 14.6672 2.048 14.6672 2.832C14.6672 3.29867 14.5506 3.72333 14.3172 4.106C14.0932 4.47933 13.7806 4.778 13.3792 5.002V5.016ZM16.9325 4.344C16.6338 4.344 16.3818 4.246 16.1765 4.05C15.9712 3.84467 15.8685 3.59733 15.8685 3.308C15.8685 3.01867 15.9712 2.77133 16.1765 2.566C16.3912 2.36067 16.6432 2.258 16.9325 2.258C17.2218 2.258 17.4692 2.36067 17.6745 2.566C17.8798 2.77133 17.9825 3.01867 17.9825 3.308C17.9825 3.59733 17.8798 3.84467 17.6745 4.05C17.4692 4.246 17.2218 4.344 16.9325 4.344ZM16.9325 9.3C16.6338 9.3 16.3818 9.202 16.1765 9.006C15.9712 8.80067 15.8685 8.55333 15.8685 8.264C15.8685 7.97467 15.9712 7.72733 16.1765 7.522C16.3912 7.31667 16.6432 7.214 16.9325 7.214C17.2218 7.214 17.4692 7.31667 17.6745 7.522C17.8798 7.72733 17.9825 7.97467 17.9825 8.264C17.9825 8.55333 17.8798 8.80067 17.6745 9.006C17.4692 9.202 17.2218 9.3 16.9325 9.3ZM22.456 3.826C23.3146 3.826 24.0333 4.106 24.612 4.666C25.2 5.226 25.494 5.97733 25.494 6.92C25.494 7.872 25.1813 8.642 24.556 9.23C23.9306 9.818 23.1093 10.112 22.092 10.112C21.4293 10.112 20.8086 9.97667 20.23 9.706C19.6606 9.43533 19.1893 9.05267 18.816 8.558L19.992 7.62C20.4493 8.28267 21.1026 8.614 21.952 8.614C22.5306 8.614 22.988 8.45533 23.324 8.138C23.6693 7.81133 23.842 7.396 23.842 6.892C23.842 6.37867 23.6553 5.97267 23.282 5.674C22.9086 5.37533 22.4746 5.226 21.98 5.226C21.3453 5.226 20.8226 5.394 20.412 5.73L19.53 5.422L19.81 0.381999H25.018V1.866H21.336L21.21 4.036C21.658 3.896 22.0733 3.826 22.456 3.826ZM28.1662 10V2.328L26.4302 3.63L25.6602 2.426L28.4742 0.381999H29.7902V10H28.1662Z" fill="#7C8DB5"/>
</svg>
