<svg width="33" height="11" viewBox="0 0 33 11" fill="none" xmlns="http://www.w3.org/2000/svg">
<path d="M3.85736 10.112C2.74669 10.112 1.85069 9.678 1.16936 8.81C0.497361 7.93267 0.161361 6.72867 0.161361 5.198C0.161361 3.72333 0.492694 2.538 1.15536 1.642C1.81803 0.736667 2.71869 0.284 3.85736 0.284C4.96803 0.284 5.85936 0.718 6.53136 1.586C7.21269 2.454 7.55336 3.658 7.55336 5.198C7.55336 6.67267 7.22203 7.86267 6.55936 8.768C5.90603 9.664 5.00536 10.112 3.85736 10.112ZM3.85736 8.6C4.50136 8.6 5.00069 8.30133 5.35536 7.704C5.71936 7.10667 5.90136 6.27133 5.90136 5.198C5.90136 4.12467 5.71936 3.28933 5.35536 2.692C4.99136 2.08533 4.49203 1.782 3.85736 1.782C3.22269 1.782 2.72336 2.08533 2.35936 2.692C1.99536 3.28933 1.81336 4.12467 1.81336 5.198C1.81336 6.25267 1.99536 7.08333 2.35936 7.69C2.73269 8.29667 3.23203 8.6 3.85736 8.6ZM11.7651 0.284C12.7357 0.284 13.5477 0.638666 14.2011 1.348C14.8637 2.048 15.1951 2.958 15.1951 4.078C15.1951 5.702 14.7144 7.08333 13.7531 8.222C12.7917 9.36067 11.5831 10.0653 10.1271 10.336L9.60906 8.978C11.5131 8.45533 12.7357 7.47067 13.2771 6.024L13.2631 6.01C12.6844 6.35533 12.0357 6.528 11.3171 6.528C10.4584 6.528 9.7444 6.25267 9.17506 5.702C8.61506 5.142 8.33506 4.386 8.33506 3.434C8.33506 2.51933 8.66173 1.768 9.31506 1.18C9.9684 0.582666 10.7851 0.284 11.7651 0.284ZM9.97306 3.448C9.97306 3.924 10.1317 4.31133 10.4491 4.61C10.7664 4.89933 11.1911 5.044 11.7231 5.044C12.4511 5.044 13.0811 4.72667 13.6131 4.092V3.952C13.6131 3.308 13.4404 2.78533 13.0951 2.384C12.7591 1.98267 12.3251 1.782 11.7931 1.782C11.2517 1.782 10.8131 1.94533 10.4771 2.272C10.1411 2.59867 9.97306 2.99067 9.97306 3.448ZM17.1688 4.344C16.8702 4.344 16.6182 4.246 16.4128 4.05C16.2075 3.84467 16.1048 3.59733 16.1048 3.308C16.1048 3.01867 16.2075 2.77133 16.4128 2.566C16.6275 2.36067 16.8795 2.258 17.1688 2.258C17.4582 2.258 17.7055 2.36067 17.9108 2.566C18.1162 2.77133 18.2188 3.01867 18.2188 3.308C18.2188 3.59733 18.1162 3.84467 17.9108 4.05C17.7055 4.246 17.4582 4.344 17.1688 4.344ZM17.1688 9.3C16.8702 9.3 16.6182 9.202 16.4128 9.006C16.2075 8.80067 16.1048 8.55333 16.1048 8.264C16.1048 7.97467 16.2075 7.72733 16.4128 7.522C16.6275 7.31667 16.8795 7.214 17.1688 7.214C17.4582 7.214 17.7055 7.31667 17.9108 7.522C18.1162 7.72733 18.2188 7.97467 18.2188 8.264C18.2188 8.55333 18.1162 8.80067 17.9108 9.006C17.7055 9.202 17.4582 9.3 17.1688 9.3ZM23.1963 10V8.376H18.9963V7.27L23.4623 0.381999H24.8203V6.934H26.1503V8.376H24.8203V10H23.1963ZM20.8863 6.976H23.2523V3.126L20.8863 6.976ZM26.404 0.381999H32.382V1.46L28.854 10.196L27.216 9.888L30.562 1.866H26.404V0.381999Z" fill="#7C8DB5"/>
</svg>
