<svg width="31" height="11" viewBox="0 0 31 11" fill="none" xmlns="http://www.w3.org/2000/svg">
<path d="M3.36323 10V2.328L1.62723 3.63L0.857234 2.426L3.67123 0.381999H4.98723V10H3.36323ZM8.64703 8.516H12.399V10H6.22503L6.19703 8.922L9.29103 5.66C9.74836 5.184 10.089 4.76867 10.313 4.414C10.537 4.05 10.649 3.67667 10.649 3.294C10.649 2.86467 10.509 2.51 10.229 2.23C9.95836 1.94067 9.60836 1.796 9.17903 1.796C8.3857 1.796 7.77436 2.174 7.34503 2.93L6.18303 2.104C6.82703 0.890667 7.86303 0.284 9.29103 0.284C10.1217 0.284 10.831 0.545333 11.419 1.068C12.007 1.58133 12.301 2.26267 12.301 3.112C12.301 3.66267 12.1797 4.19 11.937 4.694C11.7037 5.198 11.293 5.75333 10.705 6.36L8.64703 8.502V8.516ZM14.3622 4.344C14.0635 4.344 13.8115 4.246 13.6062 4.05C13.4009 3.84467 13.2982 3.59733 13.2982 3.308C13.2982 3.01867 13.4009 2.77133 13.6062 2.566C13.8209 2.36067 14.0729 2.258 14.3622 2.258C14.6515 2.258 14.8989 2.36067 15.1042 2.566C15.3095 2.77133 15.4122 3.01867 15.4122 3.308C15.4122 3.59733 15.3095 3.84467 15.1042 4.05C14.8989 4.246 14.6515 4.344 14.3622 4.344ZM14.3622 9.3C14.0635 9.3 13.8115 9.202 13.6062 9.006C13.4009 8.80067 13.2982 8.55333 13.2982 8.264C13.2982 7.97467 13.4009 7.72733 13.6062 7.522C13.8209 7.31667 14.0729 7.214 14.3622 7.214C14.6515 7.214 14.8989 7.31667 15.1042 7.522C15.3095 7.72733 15.4122 7.97467 15.4122 8.264C15.4122 8.55333 15.3095 8.80067 15.1042 9.006C14.8989 9.202 14.6515 9.3 14.3622 9.3ZM20.3896 10V8.376H16.1896V7.27L20.6556 0.381999H22.0136V6.934H23.3436V8.376H22.0136V10H20.3896ZM18.0796 6.976H20.4456V3.126L18.0796 6.976ZM27.2417 3.826C28.1003 3.826 28.819 4.106 29.3977 4.666C29.9857 5.226 30.2797 5.97733 30.2797 6.92C30.2797 7.872 29.967 8.642 29.3417 9.23C28.7163 9.818 27.895 10.112 26.8777 10.112C26.215 10.112 25.5943 9.97667 25.0157 9.706C24.4463 9.43533 23.975 9.05267 23.6017 8.558L24.7777 7.62C25.235 8.28267 25.8883 8.614 26.7377 8.614C27.3163 8.614 27.7737 8.45533 28.1097 8.138C28.455 7.81133 28.6277 7.396 28.6277 6.892C28.6277 6.37867 28.441 5.97267 28.0677 5.674C27.6943 5.37533 27.2603 5.226 26.7657 5.226C26.131 5.226 25.6083 5.394 25.1977 5.73L24.3157 5.422L24.5957 0.381999H29.8037V1.866H26.1217L25.9957 4.036C26.4437 3.896 26.859 3.826 27.2417 3.826Z" fill="#7C8DB5"/>
</svg>
